<?xml version="1.0" encoding="UTF-8"?>
<svg version="1.1" xmlns="http://www.w3.org/2000/svg" width="3840" height="3840">
<path d="M0 0 C6.10117063 0.0085723 12.20232101 -0.00040255 18.30349056 -0.00706416 C28.97907339 -0.01632972 39.65460335 -0.01462785 50.33018182 -0.00533163 C61.77411889 0.00458014 73.21803009 0.00788871 84.66197084 0.0032915 C85.38718986 0.00300446 86.11240889 0.00271742 86.85960424 0.00242169 C89.81373162 0.00123012 92.76785898 -0.00000904 95.72198631 -0.00130823 C123.17998663 -0.01338217 150.63796729 -0.01089233 178.09596704 0.00088061 C204.5495913 0.01220596 231.0032068 0.01816664 257.45683359 0.01669253 C259.12019913 0.01660712 260.78356468 0.01652225 262.44693023 0.01643789 C269.13173934 0.01609003 275.81654845 0.01570494 282.50135756 0.01527231 C301.18611042 0.01407788 319.87086323 0.01389573 338.55561612 0.01447523 C339.83173491 0.01451427 339.83173491 0.01451427 341.13363388 0.0145541 C368.22872879 0.01545233 395.32382097 0.02074693 422.41891454 0.0291828 C423.29730778 0.02945599 424.17570101 0.02972918 425.08071222 0.03001064 C439.34409367 0.034464 453.60747502 0.03917892 467.87085637 0.04390953 C524.44915898 0.0626578 581.02744822 0.06907219 637.60575364 0.06352747 C641.18197961 0.06318049 644.75820558 0.06283487 648.33443155 0.06248918 C649.66075828 0.06236078 649.66075828 0.06236078 651.01387949 0.06222978 C660.80674843 0.06128361 670.59961737 0.06037189 680.39248632 0.05950201 C681.70983661 0.05938364 681.70983661 0.05938364 683.05380005 0.05926287 C730.48286697 0.05503895 777.9119324 0.06034723 825.34099857 0.06901331 C827.01339759 0.06931659 828.6857966 0.06961949 830.35819561 0.069922 C831.18489531 0.07007159 832.011595 0.07022119 832.8633462 0.07037531 C834.53115879 0.07067673 836.19897138 0.07097772 837.86678397 0.07127827 C842.02162519 0.07202712 846.17646641 0.07278311 850.33130763 0.07355445 C868.53326043 0.07690098 886.73521213 0.07897294 904.93716524 0.07761873 C905.75670835 0.07755819 906.57625145 0.07749765 907.4206292 0.07743527 C911.54660845 0.07712331 915.67258769 0.07678989 919.79856694 0.07644895 C949.63600129 0.07399657 979.47342266 0.07806937 1009.31085344 0.09365895 C1012.25280813 0.09516883 1015.19476283 0.09664887 1018.13671754 0.0981058 C1018.85870201 0.09846654 1019.58068647 0.09882728 1020.32454925 0.09919895 C1031.73771425 0.10472662 1043.15086835 0.10360494 1054.56403361 0.09970096 C1065.7973309 0.09600359 1077.03060732 0.09967272 1088.26390161 0.11056517 C1094.26800079 0.11618834 1100.27205579 0.11870203 1106.27615531 0.1123986 C1111.74611787 0.10672521 1117.21599488 0.11036346 1122.68594893 0.12119737 C1124.64468354 0.12349056 1126.60342572 0.1224996 1128.56215573 0.11767482 C1144.77048408 0.08078591 1160.93682187 0.83012704 1176.75834153 4.6292013 C1178.13530198 4.9534408 1178.13530198 4.9534408 1179.54007982 5.2842306 C1203.51701103 11.14781317 1227.05111072 23.03992809 1245.57084153 39.3792013 C1246.86634935 40.51035365 1246.86634935 40.51035365 1248.18802903 41.66435755 C1250.67934259 43.87170679 1253.13061654 46.11562559 1255.57084153 48.3792013 C1256.21279466 48.95541224 1256.85474778 49.53162318 1257.51615403 50.12529505 C1283.69895551 74.71960021 1295.01897345 108.81608091 1306.0188701 141.90764368 C1307.49427721 146.33922974 1308.98020336 150.76728563 1310.46537278 155.19560755 C1312.63207595 161.65849577 1314.7960455 168.12228573 1316.95636056 174.58731211 C1320.74977254 185.93860906 1324.56491988 197.28243545 1328.39506028 208.6213888 C1328.67128536 209.4391693 1328.94751043 210.25694979 1329.23210595 211.09951151 C1330.62189653 215.21366693 1332.01209344 219.3276849 1333.40247606 223.44164027 C1335.92927204 230.91874234 1338.45242256 238.39707484 1340.97589563 245.87529887 C1342.38239945 250.04331522 1343.78913191 254.2112544 1345.19584153 258.3792013 C1345.75834263 260.0458676 1346.32084263 261.71253426 1346.88334153 263.3792013 C1347.16177903 264.2042013 1347.44021653 265.0292013 1347.72709153 265.8792013 C1375.57084153 348.3792013 1403.41459153 430.8792013 1998.25834153 2193.3792013 C1998.53677841 2194.20419941 1998.81521528 2195.02919752 1999.10208963 2195.87919558 C1999.66459604 2197.5458813 2000.2271024 2199.21256704 2000.7896087 2200.8792528 C2002.19576009 2205.04562809 2003.60191246 2209.21200306 2005.00806688 2213.37837733 C2007.54049553 2220.88185629 2010.07291721 2228.3853376 2012.6053016 2235.8888315 C2014.01308082 2240.06010227 2015.42086588 2244.23137106 2016.82865403 2248.4026388 C2017.10733449 2249.22836768 2017.38601495 2250.05409655 2017.67314027 2250.90484751 C2021.58717079 2262.50206339 2025.50152693 2274.09916931 2029.41609262 2285.69620455 C2031.9260839 2293.13217816 2034.43598355 2300.5681827 2036.94584153 2308.0042013 C2037.22241971 2308.82362334 2037.49899789 2309.64304537 2037.78395723 2310.48729838 C2047.21178246 2338.41945587 2056.63262862 2366.35396296 2066.05126451 2394.28922022 C2074.92662143 2420.61296524 2083.80739672 2446.93487259 2092.69584153 2473.2542013 C2092.96075647 2474.0386336 2093.2256714 2474.82306589 2093.49861406 2475.63126887 C2094.30084413 2478.00672012 2095.10307826 2480.38217 2095.90531419 2482.75761927 C2096.70741117 2485.1326571 2097.50950779 2487.50769506 2098.31160234 2489.88273371 C2098.84624295 2491.46582864 2099.38088549 2493.04892292 2099.91552995 2494.63201655 C2106.28232644 2513.48439228 2112.64553719 2532.33797789 2119.00834153 2551.1917013 C2119.57281472 2552.86428847 2120.13728819 2554.53687555 2120.70176195 2556.20946253 C2122.9620802 2562.907005 2125.22237997 2569.60455371 2127.48264573 2576.3021139 C2131.42987212 2587.99843019 2135.37725037 2599.69469523 2139.32474778 2611.39092005 C2139.60306884 2612.21557072 2139.8813899 2613.04022139 2140.16814493 2613.88986147 C2141.57354401 2618.05398255 2142.97894573 2622.21810275 2144.38434862 2626.38222254 C2146.91525683 2633.8811475 2149.44614177 2641.3800803 2151.97702859 2648.87901247 C2153.38329863 2653.0457424 2154.78957016 2657.21247183 2156.19584153 2661.3792013 C2156.75834154 2663.04586797 2157.32084154 2664.71253463 2157.88334153 2666.3792013 C2158.16177903 2667.2042013 2158.44021653 2668.0292013 2158.72709153 2668.8792013 C2200.49271653 2792.6292013 2200.49271653 2792.6292013 2242.25834153 2916.3792013 C2242.67600487 2917.61672207 2242.67600487 2917.61672207 2243.10210584 2918.87924326 C2243.6645585 2920.54576994 2244.22701082 2922.21229674 2244.78946279 2923.87882365 C2246.1964343 2928.04763307 2247.60341178 2932.21644049 2249.01040147 2936.38524378 C2251.53304203 2943.85965458 2254.05564293 2951.33407875 2256.57801603 2958.80857981 C2257.97273001 2962.94150541 2259.36747961 2967.07441899 2260.76224778 2971.2073263 C2261.0388631 2972.02698122 2261.31547841 2972.84663615 2261.60047601 2973.6911291 C2265.40442974 2984.96262141 2269.21002212 2996.23355932 2273.01685594 3007.50407923 C2275.13756786 3013.78268873 2277.25781576 3020.06145491 2279.37796853 3026.34025324 C2280.80906285 3030.57830072 2282.24040105 3034.81626544 2283.67240403 3039.05400599 C2286.53709226 3047.53185669 2289.39873601 3056.01071506 2292.25225423 3064.49233282 C2293.57781281 3068.43196689 2294.90549366 3072.37086626 2296.23682664 3076.30855311 C2297.62694216 3080.42049696 2299.01216648 3084.53406057 2300.3942077 3088.64872492 C2300.91428025 3090.19447593 2301.43598327 3091.73967954 2301.95949624 3093.28426875 C2305.64522478 3104.16350813 2308.90624261 3114.98673351 2310.57084153 3126.3792013 C2310.66671556 3127.01309779 2310.76258958 3127.64699427 2310.86136888 3128.30009974 C2313.37856798 3147.23478321 2313.04802385 3168.81349419 2308.57084153 3187.3792013 C2308.28080247 3188.60558314 2308.28080247 3188.60558314 2307.98490403 3189.85674036 C2301.97403861 3214.48459176 2291.42826366 3238.2199625 2274.57084153 3257.3792013 C2273.54603685 3258.56642786 2273.54603685 3258.56642786 2272.50052903 3259.7776388 C2270.23292615 3262.35409083 2267.91641192 3264.87353643 2265.57084153 3267.3792013 C2264.22892747 3268.81972865 2264.22892747 3268.81972865 2262.85990403 3270.28935755 C2234.45477735 3300.10676025 2192.39274273 3317.3340827 2151.46417262 3318.43591462 C2145.38896701 3318.53129125 2139.31326719 3318.51465811 2133.23749803 3318.50783575 C2131.16429091 3318.50918352 2129.09108403 3318.51096804 2127.01787762 3318.51314799 C2121.31734488 3318.51787116 2115.61682813 3318.51637852 2109.9162946 3318.51387022 C2103.71566775 3318.51223614 2097.5150443 3318.51637882 2091.31441854 3318.51977939 C2080.44558298 3318.52493317 2069.5767533 3318.52638541 2058.70791696 3318.52532328 C2047.04769972 3318.52419818 2035.38748567 3318.52523518 2023.72726892 3318.52889574 C2022.99029586 3318.5291254 2022.25332281 3318.52935505 2021.49401724 3318.52959166 C2018.49233461 3318.53053332 2015.49065199 3318.53148901 2012.48896938 3318.53246285 C1981.18680276 3318.54260338 1949.88463794 3318.5456687 1918.58246986 3318.54625496 C1915.21385148 3318.54631971 1911.84523309 3318.54638765 1908.4766147 3318.54645837 C1907.22269402 3318.54648388 1907.22269402 3318.54648388 1905.9434416 3318.5465099 C1887.41300746 3318.54691848 1868.88257365 3318.54910881 1850.35213969 3318.55161422 C1842.72018566 3318.55264259 1835.08823163 3318.55363262 1827.45627759 3318.55463047 C1826.61299126 3318.55474106 1825.76970494 3318.55485165 1824.90086447 3318.55496559 C1776.57961931 3318.56128923 1728.25837437 3318.56541475 1679.93712877 3318.56495703 C1678.12900027 3318.56494125 1676.32087177 3318.56492552 1674.51274327 3318.56490982 C1666.34932926 3318.56483644 1658.18591526 3318.56474827 1650.02250125 3318.56465594 C1646.38228492 3318.56461481 1642.74206858 3318.56457467 1639.10185225 3318.56453462 C1637.27985878 3318.56451423 1635.45786531 3318.56449321 1633.63587185 3318.56447157 C1576.02906875 3318.5637914 1518.42227181 3318.57110746 1460.81547044 3318.58501185 C1446.3023479 3318.58851294 1431.78922535 3318.59198243 1417.27610277 3318.59527624 C1416.38244286 3318.59547912 1415.48878296 3318.59568199 1414.56804246 3318.59589101 C1387.01862153 3318.60210732 1359.46920112 3318.60587183 1331.91977952 3318.60713423 C1331.05466001 3318.60717418 1330.18954049 3318.60721413 1329.29820523 3318.60725529 C1310.30543003 3318.60810863 1291.31265487 3318.60836975 1272.31987967 3318.60808492 C1265.52365143 3318.60798844 1258.7274232 3318.60793639 1251.93119496 3318.60790619 C1250.2404997 3318.60789827 1248.54980445 3318.60788807 1246.85910919 3318.60787557 C1219.93557837 3318.60769935 1193.01205282 3318.61339301 1166.08852351 3318.62202938 C1138.96576546 3318.63068542 1111.8430147 3318.63286535 1084.72025585 3318.62626806 C1080.96871146 3318.62535582 1077.21716706 3318.62451253 1073.46562265 3318.62371004 C1072.3625629 3318.62346991 1072.3625629 3318.62346991 1071.23721912 3318.62322493 C1059.61401771 3318.62087597 1047.99082894 3318.62522013 1036.36762991 3318.63238123 C1024.92611604 3318.63928933 1013.48462693 3318.63884127 1002.04311226 3318.6311891 C995.92794317 3318.62730372 989.81281876 3318.62654318 983.6976528 3318.63464645 C978.12559284 3318.64196527 972.55361446 3318.63994203 966.98155803 3318.63072258 C964.98695586 3318.62901271 962.99234718 3318.63059184 960.99775167 3318.63602379 C943.86731245 3318.67952079 926.75318852 3317.9613379 910.07084153 3313.7542013 C909.02533128 3313.49477747 907.97982103 3313.23535365 906.90262864 3312.96806849 C880.32927758 3306.08983208 856.15680247 3292.78642117 836.25443528 3273.91435755 C833.96817069 3271.75455301 831.64460941 3269.67653669 829.25834153 3267.6292013 C826.13995422 3264.92874218 823.24145407 3262.0710977 820.35209153 3259.1292013 C818.48694479 3257.29677643 816.55156408 3255.58566995 814.57084153 3253.8792013 C811.34127786 3251.09680798 808.337615 3248.16900702 805.35209153 3245.1292013 C803.48694479 3243.29677643 801.55156408 3241.58566995 799.57084153 3239.8792013 C796.34127786 3237.09680798 793.337615 3234.16900702 790.35209153 3231.1292013 C788.48694479 3229.29677643 786.55156408 3227.58566995 784.57084153 3225.8792013 C781.34127786 3223.09680798 778.337615 3220.16900702 775.35209153 3217.1292013 C773.48694479 3215.29677643 771.55156408 3213.58566995 769.57084153 3211.8792013 C766.34127786 3209.09680798 763.337615 3206.16900702 760.35209153 3203.1292013 C758.48694479 3201.29677643 756.55156408 3199.58566995 754.57084153 3197.8792013 C751.34127786 3195.09680798 748.337615 3192.16900702 745.35209153 3189.1292013 C743.48694479 3187.29677643 741.55156408 3185.58566995 739.57084153 3183.8792013 C736.34127786 3181.09680798 733.337615 3178.16900702 730.35209153 3175.1292013 C728.48694479 3173.29677643 726.55156408 3171.58566995 724.57084153 3169.8792013 C721.34127786 3167.09680798 718.337615 3164.16900702 715.35209153 3161.1292013 C713.48694479 3159.29677643 711.55156408 3157.58566995 709.57084153 3155.8792013 C706.34127786 3153.09680798 703.337615 3150.16900702 700.35209153 3147.1292013 C698.48694479 3145.29677643 696.55156408 3143.58566995 694.57084153 3141.8792013 C691.34127786 3139.09680798 688.337615 3136.16900702 685.35209153 3133.1292013 C683.48694479 3131.29677643 681.55156408 3129.58566995 679.57084153 3127.8792013 C676.34127786 3125.09680798 673.337615 3122.16900702 670.35209153 3119.1292013 C668.48694479 3117.29677643 666.55156408 3115.58566995 664.57084153 3113.8792013 C661.34127786 3111.09680798 658.337615 3108.16900702 655.35209153 3105.1292013 C653.48694479 3103.29677643 651.55156408 3101.58566995 649.57084153 3099.8792013 C646.34127786 3097.09680798 643.337615 3094.16900702 640.35209153 3091.1292013 C638.48694479 3089.29677643 636.55156408 3087.58566995 634.57084153 3085.8792013 C631.34127786 3083.09680798 628.337615 3080.16900702 625.35209153 3077.1292013 C623.48694479 3075.29677643 621.55156408 3073.58566995 619.57084153 3071.8792013 C616.34127786 3069.09680798 613.337615 3066.16900702 610.35209153 3063.1292013 C608.48694479 3061.29677643 606.55156408 3059.58566995 604.57084153 3057.8792013 C601.34127786 3055.09680798 598.337615 3052.16900702 595.35209153 3049.1292013 C593.48694479 3047.29677643 591.55156408 3045.58566995 589.57084153 3043.8792013 C586.34127786 3041.09680798 583.337615 3038.16900702 580.35209153 3035.1292013 C578.48694479 3033.29677643 576.55156408 3031.58566995 574.57084153 3029.8792013 C571.34127786 3027.09680798 568.337615 3024.16900702 565.35209153 3021.1292013 C563.48694479 3019.29677643 561.55156408 3017.58566995 559.57084153 3015.8792013 C556.34127786 3013.09680798 553.337615 3010.16900702 550.35209153 3007.1292013 C548.48694479 3005.29677643 546.55156408 3003.58566995 544.57084153 3001.8792013 C541.34127786 2999.09680798 538.337615 2996.16900702 535.35209153 2993.1292013 C533.48694479 2991.29677643 531.55156408 2989.58566995 529.57084153 2987.8792013 C526.34127786 2985.09680798 523.337615 2982.16900702 520.35209153 2979.1292013 C518.48694479 2977.29677643 516.55156408 2975.58566995 514.57084153 2973.8792013 C511.34127786 2971.09680798 508.337615 2968.16900702 505.35209153 2965.1292013 C503.48694479 2963.29677643 501.55156408 2961.58566995 499.57084153 2959.8792013 C496.34127786 2957.09680798 493.337615 2954.16900702 490.35209153 2951.1292013 C488.48694479 2949.29677643 486.55156408 2947.58566995 484.57084153 2945.8792013 C481.34127786 2943.09680798 478.337615 2940.16900702 475.35209153 2937.1292013 C473.48694479 2935.29677643 471.55156408 2933.58566995 469.57084153 2931.8792013 C466.34127786 2929.09680798 463.337615 2926.16900702 460.35209153 2923.1292013 C458.48694479 2921.29677643 456.55156408 2919.58566995 454.57084153 2917.8792013 C451.34127786 2915.09680798 448.337615 2912.16900702 445.35209153 2909.1292013 C443.48694479 2907.29677643 441.55156408 2905.58566995 439.57084153 2903.8792013 C436.34127786 2901.09680798 433.337615 2898.16900702 430.35209153 2895.1292013 C428.48694479 2893.29677643 426.55156408 2891.58566995 424.57084153 2889.8792013 C421.34127786 2887.09680798 418.337615 2884.16900702 415.35209153 2881.1292013 C413.48694479 2879.29677643 411.55156408 2877.58566995 409.57084153 2875.8792013 C406.34127786 2873.09680798 403.337615 2870.16900702 400.35209153 2867.1292013 C398.48694479 2865.29677643 396.55156408 2863.58566995 394.57084153 2861.8792013 C391.34127786 2859.09680798 388.337615 2856.16900702 385.35209153 2853.1292013 C383.48694479 2851.29677643 381.55156408 2849.58566995 379.57084153 2847.8792013 C376.34127786 2845.09680798 373.337615 2842.16900702 370.35209153 2839.1292013 C368.48694479 2837.29677643 366.55156408 2835.58566995 364.57084153 2833.8792013 C361.34127786 2831.09680798 358.337615 2828.16900702 355.35209153 2825.1292013 C353.48694479 2823.29677643 351.55156408 2821.58566995 349.57084153 2819.8792013 C346.34127786 2817.09680798 343.337615 2814.16900702 340.35209153 2811.1292013 C338.48694479 2809.29677643 336.55156408 2807.58566995 334.57084153 2805.8792013 C331.34127786 2803.09680798 328.337615 2800.16900702 325.35209153 2797.1292013 C323.48694479 2795.29677643 321.55156408 2793.58566995 319.57084153 2791.8792013 C316.34127786 2789.09680798 313.337615 2786.16900702 310.35209153 2783.1292013 C308.48694479 2781.29677643 306.55156408 2779.58566995 304.57084153 2777.8792013 C301.34127786 2775.09680798 298.337615 2772.16900702 295.35209153 2769.1292013 C293.48694479 2767.29677643 291.55156408 2765.58566995 289.57084153 2763.8792013 C286.34127786 2761.09680798 283.337615 2758.16900702 280.35209153 2755.1292013 C278.48694479 2753.29677643 276.55156408 2751.58566995 274.57084153 2749.8792013 C271.34127786 2747.09680798 268.337615 2744.16900702 265.35209153 2741.1292013 C263.48694479 2739.29677643 261.55156408 2737.58566995 259.57084153 2735.8792013 C256.34127786 2733.09680798 253.337615 2730.16900702 250.35209153 2727.1292013 C248.48694479 2725.29677643 246.55156408 2723.58566995 244.57084153 2721.8792013 C241.34127786 2719.09680798 238.337615 2716.16900702 235.35209153 2713.1292013 C233.48694479 2711.29677643 231.55156408 2709.58566995 229.57084153 2707.8792013 C226.34127786 2705.09680798 223.337615 2702.16900702 220.35209153 2699.1292013 C218.48694479 2697.29677643 216.55156408 2695.58566995 214.57084153 2693.8792013 C211.34127786 2691.09680798 208.337615 2688.16900702 205.35209153 2685.1292013 C203.48694479 2683.29677643 201.55156408 2681.58566995 199.57084153 2679.8792013 C196.34127786 2677.09680798 193.337615 2674.16900702 190.35209153 2671.1292013 C188.48694479 2669.29677643 186.55156408 2667.58566995 184.57084153 2665.8792013 C181.34127786 2663.09680798 178.337615 2660.16900702 175.35209153 2657.1292013 C173.48694479 2655.29677643 171.55156408 2653.58566995 169.57084153 2651.8792013 C166.34127786 2649.09680798 163.337615 2646.16900702 160.35209153 2643.1292013 C158.48694479 2641.29677643 156.55156408 2639.58566995 154.57084153 2637.8792013 C151.34127786 2635.09680798 148.337615 2632.16900702 145.35209153 2629.1292013 C142.85889123 2626.67974136 140.21043982 2624.42813808 137.55912278 2622.1526388 C134.94022963 2619.81673017 132.521789 2617.31298412 130.11381028 2614.7620138 C128.50595288 2613.13665084 128.50595288 2613.13665084 125.57084153 2612.3792013 C125.45914628 2613.20739375 125.34745103 2614.03558619 125.23237108 2614.88887537 C124.4895889 2618.80790203 123.30058549 2622.47054888 121.98636888 2626.22441615 C121.72197637 2626.99249724 121.45758386 2627.76057833 121.18517946 2628.55193461 C120.6089452 2630.22462135 120.03061527 2631.89658728 119.45043825 2633.56791056 C117.84734974 2638.18740504 116.26080995 2642.81259447 114.67142747 2647.43681849 C114.16804447 2648.89925832 114.16804447 2648.89925832 113.65449212 2650.39124239 C109.92394353 2661.23792414 106.26450085 2672.10830502 102.60990403 2682.9807638 C101.92585162 2685.01444145 101.24176422 2687.04810733 100.55764268 2689.08176173 C99.15732871 2693.24503821 97.75750488 2697.40847907 96.35804246 2701.57204188 C92.61762313 2712.69999188 88.87339551 2723.82666099 85.12943528 2734.95342005 C84.75744571 2736.05903096 84.38545614 2737.16464186 84.00219415 2738.30375613 C77.43772876 2757.81377115 70.85522472 2777.31762668 64.25834153 2796.8167013 C62.35323704 2802.44815876 60.44825549 2808.07965779 58.54349778 2813.71123255 C58.30636693 2814.41231261 58.06923608 2815.11339266 57.82491945 2815.83571757 C51.26864644 2835.22074194 44.73298203 2854.61271868 38.19584153 2874.0042013 C35.73238944 2881.31152317 33.26886591 2888.61882094 30.80521653 2895.9260763 C30.50156364 2896.82672249 30.19791074 2897.72736868 29.88505624 2898.65530718 C23.41107403 2917.85688263 16.9295453 2937.05590664 10.44584153 2956.2542013 C9.91102047 2957.83782947 9.37619991 2959.4214578 8.84137987 2961.00508631 C8.30662038 2962.58853155 7.77186086 2964.17197679 7.2371013 2965.755422 C6.43482264 2968.13100327 5.63254481 2970.50658481 4.83026956 2972.88216723 C4.29554938 2974.46550266 3.76082673 2976.04883727 3.22610162 2977.63217104 C-2.57626599 2994.81324542 -8.37568607 3011.9953142 -14.17445876 3029.17760218 C-15.58094144 3033.34513245 -16.98748799 3037.51264117 -18.39405562 3041.68014277 C-23.24270177 3056.04617801 -28.09121371 3070.41225837 -32.93745925 3084.77910365 C-33.22842828 3085.64168126 -33.51939732 3086.50425888 -33.8191836 3087.39297522 C-34.99383078 3090.87524725 -36.16846744 3094.35752282 -37.34299399 3097.83983553 C-40.50185295 3107.20542381 -43.66207712 3116.5705458 -46.82686354 3125.93413294 C-47.9313298 3129.20226199 -49.03572344 3132.47041558 -50.14009597 3135.7385763 C-50.40878934 3136.53361504 -50.67748271 3137.32865378 -50.9543183 3138.1477846 C-54.21596978 3147.8002883 -57.46295877 3157.45748888 -60.68776442 3167.12236536 C-62.40701675 3172.27454901 -64.13522173 3177.42371991 -65.86372878 3182.57280482 C-66.6386254 3184.88780052 -67.4099715 3187.20398871 -68.17720534 3189.52153529 C-76.98111719 3216.11038388 -87.51629387 3240.40799655 -106.42915847 3261.3792013 C-107.55451627 3262.73307063 -108.67956192 3264.08719956 -109.80415847 3265.4417013 C-137.88346557 3297.03092179 -179.05573461 3315.07925275 -220.82454575 3318.17233001 C-226.83584905 3318.51732299 -232.83758342 3318.51747364 -238.85724475 3318.50783575 C-240.27332232 3318.50918548 -241.68939953 3318.5109711 -243.10547607 3318.51314799 C-246.97680413 3318.51784485 -250.84810846 3318.51638716 -254.71943763 3318.51387022 C-258.93891179 3318.51222929 -263.15838103 3318.51638448 -267.37785359 3318.51977939 C-274.7666972 3318.52492218 -282.15553426 3318.52635254 -289.54437949 3318.52532328 C-300.53232425 3318.52379642 -311.52026177 3318.5279644 -322.50820513 3318.53319791 C-343.27655317 3318.54286355 -364.04489875 3318.54568186 -384.81324878 3318.54625496 C-400.85348222 3318.5467147 -416.89371469 3318.54877407 -432.93394782 3318.55195559 C-437.55299528 3318.55285315 -442.17204274 3318.55374296 -446.79109021 3318.55463047 C-447.93943745 3318.55485151 -449.08778469 3318.55507256 -450.27093033 3318.55530031 C-482.56747057 3318.56145364 -514.86401047 3318.56540096 -547.16055133 3318.56495703 C-548.37794846 3318.56494145 -549.5953456 3318.56492587 -550.84963356 3318.56490982 C-557.01974672 3318.56482672 -563.18985988 3318.56472768 -569.35997304 3318.56462512 C-570.5853539 3318.56460517 -571.81073476 3318.56458522 -573.07324837 3318.56456468 C-575.55126685 3318.56452424 -578.02928534 3318.56448244 -580.50730382 3318.56443928 C-619.05702412 3318.5638266 -657.60673561 3318.57133225 -696.15645339 3318.58501185 C-739.47894152 3318.6003788 -782.80142388 3318.6089777 -826.12391491 3318.60804863 C-830.74516286 3318.607974 -835.36641081 3318.60792529 -839.98765875 3318.60789431 C-841.69442803 3318.60787683 -841.69442803 3318.60787683 -843.43567749 3318.60785899 C-861.7310623 3318.60782825 -880.02643946 3318.6142088 -898.321822 3318.62282657 C-916.71551151 3318.63131134 -935.10918985 3318.63228655 -953.50288024 3318.62571725 C-964.42327063 3318.62202712 -975.34362704 3318.62383792 -986.26401382 3318.63365959 C-993.56830624 3318.63967263 -1000.87257414 3318.63834944 -1008.17686545 3318.6311891 C-1012.33212986 3318.62731877 -1016.48732869 3318.62649945 -1020.6425884 3318.63464645 C-1062.27457327 3318.71090942 -1062.27457327 3318.71090942 -1081.92915847 3313.7542013 C-1083.49742385 3313.36506556 -1083.49742385 3313.36506556 -1085.09737136 3312.96806849 C-1113.07806952 3305.72555487 -1137.73185206 3291.40067729 -1158.42915847 3271.3792013 C-1159.3663069 3270.49361536 -1160.30345534 3269.60802943 -1161.26900222 3268.69560755 C-1172.41733007 3257.92253898 -1180.9292784 3245.89061845 -1188.42915847 3232.3792013 C-1188.77720534 3231.75706751 -1189.12525222 3231.13493372 -1189.48384597 3230.4939474 C-1202.71323259 3206.50325049 -1208.65335765 3179.79946295 -1208.67915847 3152.5667013 C-1208.68016555 3151.83098902 -1208.68117263 3151.09527674 -1208.68221022 3150.33727015 C-1208.66067665 3127.06518149 -1203.20658669 3106.19705114 -1195.84322097 3084.2932638 C-1195.29919474 3082.66426263 -1194.75553341 3081.03513956 -1194.212209 3079.40590418 C-1193.07356553 3075.9945481 -1191.9320183 3072.58418391 -1190.78804518 3069.17461146 C-1189.36808127 3064.9424098 -1187.95301398 3060.70859489 -1186.53993537 3056.47408999 C-1180.34268242 3037.90513691 -1174.07176786 3019.3623546 -1167.73241164 3000.84145869 C-1160.82153711 2980.64737221 -1154.01670366 2960.41788585 -1147.21635939 2940.18636073 C-1143.47594006 2929.05841073 -1139.73171244 2917.93174161 -1135.98775222 2906.80498255 C-1135.42976785 2905.14656619 -1135.42976785 2905.14656619 -1134.86051108 2903.45464648 C-1128.29604569 2883.94463145 -1121.71354165 2864.44077592 -1115.11665847 2844.9417013 C-1113.21155397 2839.31024385 -1111.30657242 2833.67874481 -1109.40181472 2828.04717005 C-1109.16468386 2827.34609 -1108.92755301 2826.64500994 -1108.68323638 2825.92268504 C-1102.12696337 2806.53766067 -1095.59129896 2787.14568393 -1089.05415847 2767.7542013 C-1086.59070637 2760.44687943 -1084.12718284 2753.13958166 -1081.66353347 2745.8323263 C-1081.35988057 2744.93168011 -1081.05622767 2744.03103392 -1080.74337317 2743.10309542 C-1074.26939096 2723.90151997 -1067.78786223 2704.70249596 -1061.30415847 2685.5042013 C-1060.7693374 2683.92057314 -1060.23451684 2682.3369448 -1059.6996968 2680.75331629 C-1059.16493731 2679.16987105 -1058.63017779 2677.58642582 -1058.09541823 2676.0029806 C-1057.29313957 2673.62739933 -1056.49086174 2671.25181779 -1055.68858649 2668.87623537 C-1055.15386631 2667.29289994 -1054.61914366 2665.70956533 -1054.08441855 2664.12623156 C-1047.71763889 2645.27390744 -1041.35444545 2626.42037328 -1034.99165847 2607.5667013 C-1034.42718528 2605.89411413 -1033.86271181 2604.22152705 -1033.29823805 2602.54894007 C-1031.0379198 2595.8513976 -1028.77762003 2589.15384889 -1026.51735427 2582.4562887 C-1022.57012788 2570.75997241 -1018.62274963 2559.06370738 -1014.67525222 2547.36748255 C-1014.39693116 2546.54283188 -1014.1186101 2545.71818121 -1013.83185507 2544.86854113 C-1012.42645599 2540.70442005 -1011.02105427 2536.54029986 -1009.61565138 2532.37618006 C-1007.08474317 2524.87725511 -1004.55385823 2517.3783223 -1002.02297141 2509.87939013 C-1000.61670137 2505.7126602 -999.21042984 2501.54593078 -997.80415847 2497.3792013 C-997.24165846 2495.71253464 -996.67915846 2494.04586797 -996.11665847 2492.3792013 C-940.42823147 2327.37645465 -940.42823147 2327.37645465 -694.89791037 1599.87920702 C-694.33540396 1598.2125213 -693.7728976 1596.54583556 -693.2103913 1594.8791498 C-691.80423991 1590.71277451 -690.39808754 1586.54639955 -688.99193312 1582.38002528 C-686.45950447 1574.87654632 -683.92708279 1567.373065 -681.3946984 1559.8695711 C-679.98691918 1555.69830034 -678.57913412 1551.52703155 -677.17134597 1547.3557638 C-676.89266551 1546.53003493 -676.61398505 1545.70430605 -676.32685973 1544.85355509 C-672.41282921 1533.25633922 -668.49847307 1521.65923329 -664.58390738 1510.06219805 C-662.0739161 1502.62622444 -659.56401645 1495.1902199 -657.05415847 1487.7542013 C-656.6392912 1486.52506825 -656.6392912 1486.52506825 -656.21604277 1485.27110422 C-647.0944904 1458.2463524 -637.97932002 1431.21945222 -628.86665847 1404.1917013 C-618.35020113 1373.00035422 -607.82481216 1341.81203531 -597.2926686 1310.6259817 C-596.75791093 1309.04254433 -596.22315395 1307.45910673 -595.68839766 1305.87566889 C-595.15375705 1304.29257396 -594.61911451 1302.70947968 -594.08447005 1301.12638605 C-587.71767356 1282.27401033 -581.35446281 1263.42042471 -574.99165847 1244.5667013 C-574.42718528 1242.89411413 -573.86271181 1241.22152705 -573.29823805 1239.54894007 C-571.0379198 1232.8513976 -568.77762003 1226.15384889 -566.51735427 1219.4562887 C-562.57012788 1207.75997241 -558.62274963 1196.06370738 -554.67525222 1184.36748255 C-554.39693116 1183.54283188 -554.1186101 1182.71818121 -553.83185507 1181.86854113 C-552.42645599 1177.70442005 -551.02105427 1173.54029986 -549.61565138 1169.37618006 C-547.08474317 1161.87725511 -544.55385823 1154.3783223 -542.02297141 1146.87939013 C-540.61670137 1142.7126602 -539.21042984 1138.54593078 -537.80415847 1134.3792013 C-537.24165846 1132.71253464 -536.67915846 1131.04586797 -536.11665847 1129.3792013 C-508.27290847 1046.8792013 -480.42915847 964.3792013 -262.74165847 319.3792013 C-262.46321845 318.55419375 -262.18477843 317.7291862 -261.89790084 316.87917841 C-261.3354265 315.21258796 -260.77295193 313.54599759 -260.21047713 311.8794073 C-258.80383266 307.71157514 -257.39719217 303.54374165 -255.99055983 299.3759054 C-253.46402441 291.88982126 -250.93746197 284.40374624 -248.41074874 276.91772211 C-247.01061545 272.76947188 -245.61050577 268.62121368 -244.21040847 264.4729513 C-243.9329428 263.6508668 -243.65547713 262.8287823 -243.36960341 261.98178614 C-240.22078972 252.65225323 -237.07249795 243.32254453 -233.92525222 233.99248255 C-233.63434549 233.13008904 -233.34343877 232.26769553 -233.04371668 231.37916888 C-231.86871172 227.89582558 -230.69372046 224.41247767 -229.51881339 220.92910136 C-226.35914541 211.561323 -223.1982944 202.19394803 -220.03340651 192.82793177 C-219.20271468 190.36942225 -218.37203896 187.91090728 -217.54138114 185.45238627 C-216.99704726 183.8413202 -216.4526838 182.23026412 -215.90829016 180.61921824 C-212.6398425 170.94560154 -209.38342496 161.26809288 -206.14476515 151.58446253 C-204.41502136 146.41310715 -202.67752367 141.2443647 -200.93965651 136.0757345 C-200.15848993 133.74688065 -199.38034825 131.41700931 -198.60567214 129.08598841 C-193.1813984 112.76710633 -187.55075867 96.32940197 -178.55415847 81.5667013 C-177.93045363 80.52799891 -177.93045363 80.52799891 -177.2941487 79.46831263 C-164.51324229 58.59931994 -146.85543255 40.76794027 -126.42915847 27.3792013 C-125.79413405 26.96283411 -125.15910964 26.54646693 -124.50484206 26.11748255 C-85.82114135 1.19118222 -44.52478775 -0.08703517 0 0 Z M551.57084153 1353.3792013 C551.15946946 1354.61855433 550.74809739 1355.85790736 550.3242595 1357.13481654 C542.97919324 1379.25478827 535.61283358 1401.36628381 528.05710862 1423.4153036 C522.58738996 1439.37713895 517.16909556 1455.3561532 511.76117586 1471.33900202 C505.71987798 1489.19332451 499.67350789 1507.04573563 493.57084153 1524.8792013 C487.74353883 1541.90881214 481.96636322 1558.95528828 476.19584153 1576.0042013 C469.27862561 1596.44055544 462.3504146 1616.87305773 455.38993333 1637.29472865 C454.74839775 1639.17704762 454.10687756 1641.05937183 453.46537278 1642.9417013 C453.14898347 1643.87003779 452.83259416 1644.79837428 452.50661729 1645.75484217 C450.10854366 1652.79402191 447.71937884 1659.83619832 445.33256028 1666.8792013 C438.07192195 1688.29613831 430.77376931 1709.69744452 423.26981614 1731.03056849 C411.970044 1763.19752382 401.13552756 1795.52845866 390.25962709 1827.84052409 C387.63523868 1835.63631103 385.00851504 1843.43131183 382.38232873 1851.22649325 C381.3814732 1854.19737084 380.38071486 1857.16828116 379.37996934 1860.13919581 C373.32099427 1878.12559004 367.251236 1896.1083343 361.17771791 1914.08982218 C359.84799788 1918.02667237 358.51838523 1921.96355883 357.18876146 1925.90044154 C356.65606202 1927.47770701 356.12336243 1929.05497243 355.5906627 1930.6322378 C355.32693046 1931.41312203 355.06319822 1932.19400626 354.79147409 1932.99855364 C354.25946827 1934.57375729 353.72745661 1936.14895896 353.19543908 1937.72415865 C347.68519118 1954.03894913 342.17793782 1970.3547497 336.67154477 1986.67084158 C334.98730918 1991.66142282 333.30296039 1996.65196583 331.61850141 2001.64247168 C326.10818292 2017.96780716 320.59914151 2034.2935709 315.09450792 2050.62082423 C312.96689297 2056.93147675 310.83866099 2063.24192113 308.71029638 2069.55232085 C307.2710553 2073.81968755 305.83214489 2078.08716506 304.39411424 2082.35493983 C303.05656874 2086.32446538 301.71827315 2090.29373714 300.37926935 2094.26277102 C299.86483922 2095.78779031 299.35059871 2097.31287357 298.83655618 2098.83802355 C296.04009645 2107.13289062 293.21931934 2115.41845183 290.34818528 2123.68779505 C290.08862802 2124.43673533 289.82907075 2125.18567561 289.56164811 2125.95731104 C288.32874628 2129.51433351 287.09150387 2133.06970963 285.84537767 2136.62212122 C285.41382371 2137.86453577 284.98226976 2139.10695032 284.53763841 2140.3870138 C284.15635789 2141.47643275 283.77507737 2142.56585169 283.3822429 2143.68828333 C282.42649433 2146.38948042 282.42649433 2146.38948042 282.57084153 2149.3792013 C460.11084153 2149.3792013 637.65084153 2149.3792013 820.57084153 2149.3792013 C819.25023639 2143.43647817 817.88267777 2137.93042498 815.88871263 2132.24101771 C815.62573507 2131.47718146 815.3627575 2130.71334521 815.09181093 2129.9263624 C814.52162066 2128.27158117 813.94928019 2126.61753957 813.37499879 2124.96417368 C811.78499773 2120.38508127 810.21217082 2115.80007558 808.63627122 2111.21611536 C808.30377429 2110.25043068 807.97127736 2109.284746 807.62870477 2108.28979815 C803.90598999 2097.46916493 800.25581298 2086.62434168 796.60990403 2075.7776388 C795.92577108 2073.74371673 795.2416023 2071.70980671 794.55739854 2069.67590845 C793.15716544 2065.51287628 791.75742273 2061.34967964 790.35804246 2057.18636073 C786.61762313 2046.05841073 782.87339551 2034.93174161 779.12943528 2023.80498255 C778.75744571 2022.69937165 778.38545614 2021.59376074 778.00219415 2020.45464648 C771.43772876 2000.94463145 764.85522472 1981.44077592 758.25834153 1961.9417013 C756.35323704 1956.31024385 754.44825549 1950.67874481 752.54349778 1945.04717005 C752.30636693 1944.34609 752.06923608 1943.64500994 751.82491945 1942.92268504 C745.26864644 1923.53766067 738.73298203 1904.14568393 732.19584153 1884.7542013 C729.73238944 1877.44687943 727.26886591 1870.13958166 724.80521653 1862.8323263 C724.50156364 1861.93168011 724.19791074 1861.03103392 723.88505624 1860.10309542 C717.41107403 1840.90151997 710.9295453 1821.70249596 704.44584153 1802.5042013 C703.91102047 1800.92057314 703.37619991 1799.3369448 702.84137987 1797.75331629 C702.30662038 1796.16987105 701.77186086 1794.58642582 701.2371013 1793.0029806 C700.43482264 1790.62739933 699.63254481 1788.25181779 698.83026956 1785.87623537 C698.29554938 1784.29289994 697.76082673 1782.70956533 697.22610162 1781.12623156 C690.85932196 1762.27390744 684.49612852 1743.42037328 678.13334153 1724.5667013 C677.56886835 1722.89411413 677.00439488 1721.22152705 676.43992112 1719.54894007 C674.17960287 1712.8513976 671.9193031 1706.15384889 669.65903734 1699.4562887 C665.71181095 1687.75997241 661.7644327 1676.06370738 657.81693528 1664.36748255 C657.53861423 1663.54283188 657.26029317 1662.71818121 656.97353814 1661.86854113 C655.56813906 1657.70442005 654.16273734 1653.54029986 652.75733445 1649.37618006 C650.22642624 1641.87725511 647.6955413 1634.3783223 645.16465448 1626.87939013 C643.75838444 1622.7126602 642.35211291 1618.54593078 640.94584153 1614.3792013 C640.38334153 1612.71253464 639.82084153 1611.04586797 639.25834153 1609.3792013 C638.84068528 1608.1417013 638.84068528 1608.1417013 638.41459153 1606.8792013 C608.88334177 1519.37920199 608.88334177 1519.37920199 608.0395696 1516.8791355 C607.47714337 1515.21268795 606.91471649 1513.54624063 606.35228895 1511.87979353 C604.94490486 1507.70977609 603.53753222 1503.53975479 602.13018297 1499.36972559 C599.61248717 1491.90973374 597.09471754 1484.44976686 594.57650731 1476.98994864 C593.18784225 1472.87622943 591.79924598 1468.76248699 590.41068528 1464.64873255 C590.1350418 1463.8321146 589.85939832 1463.01549666 589.57540201 1462.17413271 C585.68688206 1450.65361017 581.80163246 1439.1319886 577.9185283 1427.60963953 C575.72938138 1421.11382236 573.53938919 1414.61829025 571.34920953 1408.12282122 C569.56521825 1402.83173386 567.78235299 1397.54026889 566.00034688 1392.24851263 C564.89916697 1388.97941186 563.79689458 1385.7106802 562.69432901 1382.44204653 C562.18658747 1380.93607788 561.67929258 1379.42995855 561.1724975 1377.92367113 C558.40675007 1369.70414415 555.58705433 1361.51084348 552.57084153 1353.3792013 C552.24084153 1353.3792013 551.91084153 1353.3792013 551.57084153 1353.3792013 Z " fill="#0B59A2" transform="translate(1368.4291584650055,260.62079869862646)"/>
<path d="M0 0 C1.34751715 -0.00268628 1.34751715 -0.00268628 2.72225687 -0.00542683 C4.05701617 -0.00808912 4.05701617 -0.00808912 5.4187403 -0.01080519 C16.32690912 -0.0321977 27.23508765 -0.04694259 38.14326884 -0.0603948 C46.31985599 -0.07079467 54.49638327 -0.08697007 62.67293889 -0.11203762 C68.62027268 -0.12972298 74.56757129 -0.13713217 80.51493243 -0.14048917 C82.86357392 -0.14348087 85.2122144 -0.14986267 87.56083504 -0.16020043 C104.73862738 -0.23363817 121.76244125 0.277268 138.54834554 4.30791097 C139.46631917 4.52407064 140.38429281 4.74023031 141.33008382 4.96294027 C165.30701503 10.82652283 188.84111473 22.71863776 207.36084554 39.05791097 C208.22451742 39.81201253 209.08818929 40.56611409 209.97803304 41.34306722 C212.46934659 43.55041646 214.92062055 45.79433526 217.36084554 48.05791097 C218.00279867 48.63412191 218.64475179 49.21033284 219.30615804 49.80400472 C245.48895952 74.39830987 256.80897745 108.49479058 267.80887411 141.58635335 C269.28428121 146.01793941 270.77020737 150.4459953 272.25537679 154.87431722 C274.42207996 161.33720544 276.58604951 167.80099539 278.74636457 174.26602178 C282.53977655 185.61731872 286.35492388 196.96114512 290.18506429 208.30009847 C290.46128936 209.11787896 290.73751443 209.93565946 291.02210996 210.77822118 C292.41190054 214.8923766 293.80209745 219.00639456 295.19248006 223.12034993 C297.71927605 230.59745201 300.24242657 238.0757845 302.76589963 245.55400853 C304.17240346 249.72202489 305.57913591 253.88996407 306.98584554 258.05791097 C307.54834664 259.72457727 308.11084664 261.39124393 308.67334554 263.05791097 C308.95178304 263.88291097 309.23022054 264.70791097 309.51709554 265.55791097 C351.28272054 389.30791097 351.28272054 389.30791097 960.04834554 2193.05791097 C960.32678241 2193.88290908 960.60521928 2194.70790719 960.89209363 2195.55790525 C961.45460005 2197.22459097 962.01710641 2198.89127671 962.57961271 2200.55796247 C963.98576409 2204.72433776 965.39191647 2208.89071272 966.79807088 2213.05708699 C969.33049954 2220.56056596 971.86292122 2228.06404727 974.39530561 2235.56754117 C975.80308482 2239.73881194 977.21086988 2243.91008073 978.61865804 2248.08134847 C978.8973385 2248.90707734 979.17601896 2249.73280622 979.46314428 2250.58355718 C983.37717479 2262.18077305 987.29153093 2273.77787898 991.20609662 2285.37491422 C993.71608791 2292.81088783 996.22598755 2300.24689237 998.73584554 2307.68291097 C999.01242372 2308.502333 999.2890019 2309.32175504 999.57396123 2310.16600805 C1009.00178647 2338.09816554 1018.42263263 2366.03267263 1027.84126851 2393.96792989 C1036.71662544 2420.29167491 1045.59740072 2446.61358226 1054.48584554 2472.93291097 C1054.75076047 2473.71734327 1055.01567541 2474.50177556 1055.28861806 2475.30997854 C1056.09084814 2477.68542978 1056.89308227 2480.06087967 1057.6953182 2482.43632894 C1058.49741518 2484.81136677 1059.2995118 2487.18640473 1060.10160634 2489.56144338 C1060.63624696 2491.14453831 1061.1708895 2492.72763259 1061.70553396 2494.31072622 C1068.07233045 2513.16310194 1074.4355412 2532.01668756 1080.79834554 2550.87041097 C1081.36281873 2552.54299814 1081.9272922 2554.21558522 1082.49176595 2555.8881722 C1084.7520842 2562.58571467 1087.01238397 2569.28326338 1089.27264974 2575.98082357 C1093.21987613 2587.67713986 1097.16725437 2599.37340489 1101.11475179 2611.06962972 C1101.39307285 2611.89428039 1101.6713939 2612.71893106 1101.95814893 2613.56857114 C1103.36354802 2617.73269222 1104.76894973 2621.89681241 1106.17435262 2626.06093221 C1108.70526083 2633.55985716 1111.23614578 2641.05878997 1113.7670326 2648.55772214 C1115.17330264 2652.72445207 1116.57957416 2656.89118149 1117.98584554 2661.05791097 C1118.54834555 2662.72457763 1119.11084555 2664.3912443 1119.67334554 2666.05791097 C1119.95178304 2666.88291097 1120.23022054 2667.70791097 1120.51709554 2668.55791097 C1162.28272054 2792.30791097 1162.28272054 2792.30791097 1204.04834554 2916.05791097 C1204.46600887 2917.29543174 1204.46600887 2917.29543174 1204.89210985 2918.55795293 C1205.4545625 2920.22447961 1206.01701482 2921.8910064 1206.57946679 2923.55753331 C1207.98643831 2927.72634274 1209.39341578 2931.89515016 1210.80040548 2936.06395345 C1213.32304604 2943.53836425 1215.84564694 2951.01278841 1218.36802003 2958.48728948 C1219.76273402 2962.62021508 1221.15748362 2966.75312866 1222.55225179 2970.88603597 C1222.82886711 2971.70569089 1223.10548242 2972.52534581 1223.39048002 2973.36983876 C1227.19443374 2984.64133108 1231.00002613 2995.91226899 1234.80685994 3007.1827889 C1236.92757186 3013.4613984 1239.04781976 3019.74016458 1241.16797254 3026.01896291 C1242.59906686 3030.25701039 1244.03040506 3034.49497511 1245.46240804 3038.73271566 C1248.32709626 3047.21056636 1251.18874001 3055.68942473 1254.04225824 3064.17104249 C1255.36781681 3068.11067656 1256.69549767 3072.04957593 1258.02683065 3075.98726278 C1259.41694617 3080.09920663 1260.80217049 3084.21277023 1262.18421171 3088.32743459 C1262.70428425 3089.8731856 1263.22598727 3091.41838921 1263.74950025 3092.96297841 C1267.43522879 3103.84221779 1270.69624662 3114.66544318 1272.36084554 3126.05791097 C1272.45671956 3126.69180745 1272.55259359 3127.32570394 1272.65137288 3127.97880941 C1275.16857198 3146.91349288 1274.83802786 3168.49220386 1270.36084554 3187.05791097 C1270.07080648 3188.28429281 1270.07080648 3188.28429281 1269.77490804 3189.53545003 C1263.76404262 3214.16330142 1253.21826767 3237.89867216 1236.36084554 3257.05791097 C1235.33604085 3258.24513753 1235.33604085 3258.24513753 1234.29053304 3259.45634847 C1232.02293015 3262.0328005 1229.70641593 3264.55224609 1227.36084554 3267.05791097 C1226.01893148 3268.49843831 1226.01893148 3268.49843831 1224.64990804 3269.96806722 C1196.26279175 3299.76656406 1154.27392346 3316.95471934 1113.37879876 3318.11410229 C1107.78804044 3318.20681224 1102.19686072 3318.18862772 1096.60553548 3318.17937093 C1094.68959957 3318.17989813 1092.77366373 3318.18085867 1090.85772822 3318.18220859 C1085.55128959 3318.18462623 1080.24487157 3318.18069012 1074.93843541 3318.17571383 C1069.07360601 3318.17128949 1063.2087771 3318.17261324 1057.34394643 3318.17306905 C1046.18340857 3318.17298503 1035.02287838 3318.16797573 1023.86234351 3318.16069212 C1013.12770584 3318.15370545 1002.39306961 3318.14896743 991.65843007 3318.14603048 C896.11010251 3318.11924223 800.56180325 3318.02105152 442.09092804 3317.61706846 C405.22045218 3317.57235534 368.34997543 3317.52845478 331.47949788 3317.48515706 C330.20744798 3317.48366301 328.93539807 3317.48216895 327.62480119 3317.48062962 C314.83976437 3317.46561399 302.05472753 3317.4506118 289.26969067 3317.43561942 C263.27055487 3317.40513121 237.27141917 3317.37455382 211.27228353 3317.34392171 C210.07927443 3317.34251622 208.88626533 3317.34111073 207.65710444 3317.33966265 C129.22501634 3317.24725134 50.79293072 3317.1527678 -27.63915446 3317.05791097 C-27.30915446 3316.39791097 -26.97915446 3315.73791097 -26.63915446 3315.05791097 C-24.89940837 3314.4829598 -24.89940837 3314.4829598 -22.61571696 3314.01494222 C-21.76944743 3313.83237874 -20.9231779 3313.64981527 -20.05126383 3313.46171956 C-18.67164469 3313.16902181 -18.67164469 3313.16902181 -17.26415446 3312.87041097 C24.77098664 3303.30463022 62.41126431 3278.0820318 85.64356038 3241.51933675 C108.24278377 3204.93797308 118.42789392 3159.84344063 108.9001827 3117.31227498 C108.0438685 3113.73298532 107.02703551 3110.21303011 105.96240804 3106.69072347 C105.70963094 3105.85232427 105.45685384 3105.01392507 105.19641683 3104.15011983 C100.9458919 3090.24800924 96.25418313 3076.48230395 91.63940999 3062.69798665 C90.61932049 3059.64835408 89.60248564 3056.59764127 88.58571813 3053.54689985 C82.64821374 3035.73503071 76.63235278 3017.95100192 70.55412099 3000.1866818 C64.15100602 2981.47238745 57.82515786 2962.73247584 51.51319311 2943.98727422 C49.94966641 2939.34465521 48.38510324 2934.70238554 46.82056234 2930.06010824 C46.50239773 2929.11605028 46.18423313 2928.17199233 45.85642717 2927.19932657 C45.21105154 2925.284378 44.56567183 2923.36943081 43.92028806 2921.45448499 C42.9522553 2918.58208897 41.98432178 2915.70965952 41.0164089 2912.8372231 C35.00882694 2895.00942192 28.99204043 2877.18473446 22.97230337 2859.36103444 C22.17143616 2856.98975751 21.37059797 2854.61847079 20.56976888 2852.24718099 C18.43581261 2845.92845663 16.3018309 2839.60974088 14.16773031 2833.29106527 C10.65286001 2822.88411385 7.13873726 2812.47691027 3.6251354 2802.06953054 C1.1621027 2794.7739691 -1.30100935 2787.47843445 -3.76415446 2780.18291097 C-4.03463351 2779.38178632 -4.30511256 2778.58066167 -4.58378794 2777.75526052 C-10.58211004 2759.98917425 -16.58191874 2742.22359342 -22.58837321 2724.46025472 C-22.83053065 2723.7440949 -23.07268809 2723.02793508 -23.32218363 2722.29007345 C-24.54352606 2718.67807333 -25.76489257 2715.06608136 -26.98626139 2711.45409017 C-27.47472608 2710.00953055 -27.96319043 2708.56497081 -28.45165446 2707.12041097 C-28.81411643 2706.04849382 -28.81411643 2706.04849382 -29.18390086 2704.95492177 C-38.16065542 2678.40728763 -47.11767155 2651.85302066 -56.06984522 2625.29708867 C-64.62396597 2599.92208894 -73.18605691 2574.5498156 -81.76415446 2549.18291097 C-83.71735847 2543.40689602 -85.67052856 2537.6308696 -87.62352946 2531.85478597 C-87.86641074 2531.13645463 -88.10929202 2530.4181233 -88.35953334 2529.67802434 C-94.58491646 2511.26540912 -100.79967752 2492.84920941 -107.01415446 2474.43291097 C-107.58383621 2472.74469887 -108.15351801 2471.0564868 -108.72319987 2469.36827474 C-109.29300376 2467.67969646 -109.86280763 2465.99111817 -110.43261149 2464.30253988 C-111.28703433 2461.77051483 -112.14145857 2459.23849026 -112.99588587 2456.70646673 C-113.56557259 2455.01824782 -114.13525693 2453.33002811 -114.70493891 2451.64180761 C-120.74507548 2433.74234659 -126.78861318 2415.84403469 -132.83273509 2397.94591909 C-141.08927207 2373.49626172 -149.34392509 2349.04596981 -157.59564593 2324.59468656 C-159.56758112 2318.75150667 -161.53961502 2312.90836011 -163.51171305 2307.06523519 C-163.78973702 2306.24147579 -164.06776099 2305.41771638 -164.35420993 2304.56899457 C-165.47720709 2301.24165874 -166.60020514 2297.9143232 -167.72321131 2294.58699041 C-170.84301189 2285.34336875 -173.96256796 2276.09966471 -177.08153727 2266.85576253 C-183.12752772 2248.93712771 -189.17562654 2231.01921047 -195.23105815 2213.10376363 C-197.81939059 2205.4457072 -200.40561159 2197.78694853 -202.98764613 2190.12676626 C-204.77816724 2184.81551592 -206.57294007 2179.50571114 -208.36956217 2174.19652181 C-209.07681317 2172.10428916 -209.78264385 2170.0115757 -210.48687174 2167.91832357 C-211.43605429 2165.09762361 -212.39046079 2162.27874347 -213.34618571 2159.46025472 C-213.6095724 2158.67330724 -213.87295909 2157.88635976 -214.14432719 2157.07556539 C-215.59776751 2152.80910658 -217.21339139 2148.66282309 -218.9897404 2144.51982503 C-222.19863473 2136.90964942 -224.74195644 2129.10416878 -227.32274821 2121.26494222 C-227.86453945 2119.63138525 -228.40679217 2117.99798128 -228.94947245 2116.36471944 C-230.37656892 2112.06640895 -231.79854061 2107.76642242 -233.21904948 2103.46593099 C-235.72684946 2095.87613709 -238.24305649 2088.2891255 -240.76024821 2080.70244222 C-241.04142245 2079.85457647 -241.32259669 2079.00671071 -241.61229136 2078.13315206 C-246.11329965 2064.56686587 -250.70020449 2051.03151801 -255.3323479 2037.50950818 C-260.12923389 2023.50546803 -264.88009711 2009.486492 -269.60009196 1995.45634847 C-270.10757912 1993.94794141 -270.10757912 1993.94794141 -270.62531855 1992.40906148 C-272.36819901 1987.22795586 -274.11031169 1982.0465925 -275.85195353 1976.86507039 C-279.59237286 1965.73712039 -283.33660048 1954.61045128 -287.08056071 1943.48369222 C-287.45255028 1942.37808131 -287.82453986 1941.27247041 -288.20780184 1940.13335614 C-294.77226724 1920.62334112 -301.35477127 1901.11948559 -307.95165446 1881.62041097 C-309.85675896 1875.98895351 -311.7617405 1870.35745448 -313.66649821 1864.72587972 C-313.90362906 1864.02479966 -314.14075991 1863.32371961 -314.38507655 1862.6013947 C-320.94134955 1843.21637033 -327.47701396 1823.8243936 -334.01415446 1804.43291097 C-336.47760655 1797.1255891 -338.94113009 1789.81829133 -341.40477946 1782.51103597 C-341.8602588 1781.16006668 -341.8602588 1781.16006668 -342.32493975 1779.78180509 C-348.79892197 1760.58022964 -355.28045069 1741.38120563 -361.76415446 1722.18291097 C-362.29897553 1720.59928281 -362.83379608 1719.01565447 -363.36861613 1717.43202596 C-363.90337561 1715.84858072 -364.43813513 1714.26513548 -364.97289469 1712.68169027 C-365.77517336 1710.306109 -366.57745118 1707.93052746 -367.37972644 1705.55494504 C-367.91444662 1703.97160961 -368.44916926 1702.388275 -368.98389437 1700.80494123 C-375.35067404 1681.95261711 -381.71386748 1663.09908295 -388.07665446 1644.24541097 C-388.64112765 1642.5728238 -389.20560112 1640.90023672 -389.77007487 1639.22764974 C-392.03039312 1632.53010727 -394.29069289 1625.83255856 -396.55095866 1619.13499837 C-400.49818505 1607.43868208 -404.44556329 1595.74241704 -408.39306071 1584.04619222 C-408.67138177 1583.22154155 -408.94970282 1582.39689088 -409.23645785 1581.5472508 C-410.64185694 1577.38312972 -412.04725865 1573.21900953 -413.45266154 1569.05488973 C-415.98356975 1561.55596478 -418.5144547 1554.05703197 -421.04534152 1546.5580998 C-422.45161156 1542.39136987 -423.85788308 1538.22464045 -425.26415446 1534.05791097 C-425.82665447 1532.39124431 -426.38915447 1530.72457764 -426.95165446 1529.05791097 C-427.36931071 1527.82041097 -427.36931071 1527.82041097 -427.79540446 1526.55791097 C-428.63915446 1524.05791097 -429.48290446 1521.55791097 -430.32665446 1519.05791097 C-430.60509699 1518.23289681 -430.88353953 1517.40788265 -431.17041972 1516.55786805 C-431.73287071 1514.89134506 -432.29531985 1513.22482145 -432.85776713 1511.55829721 C-434.26475173 1507.38942714 -435.67176865 1503.22056799 -437.07885172 1499.05173116 C-439.60136368 1491.57805359 -442.12366101 1484.10430401 -444.64472392 1476.63013749 C-446.03853856 1472.49793434 -447.43254622 1468.36579633 -448.82665446 1464.23369222 C-449.10314829 1463.41415878 -449.37964213 1462.59462533 -449.66451457 1461.75025754 C-453.47183943 1450.46648407 -457.28804855 1439.18574893 -461.11095622 1427.90724569 C-463.24184532 1421.62046955 -465.37022776 1415.33284554 -467.49809458 1409.0450459 C-468.93537223 1404.79854516 -470.37397113 1400.55250361 -471.81615641 1396.30766683 C-478.04582544 1377.96959488 -484.09803742 1359.59354298 -489.86116984 1341.10326009 C-493.04239835 1330.90309501 -496.3581575 1320.75957976 -499.84499552 1310.65962606 C-501.62256315 1305.50728265 -503.38168189 1300.34861877 -505.14306071 1295.19072347 C-505.55029872 1293.99894994 -505.95753672 1292.80717641 -506.37711527 1291.57928853 C-512.85429681 1272.60693777 -519.22414462 1253.59806994 -525.61618235 1234.59691625 C-528.87933563 1224.8973752 -532.14398585 1215.1983378 -535.40868571 1205.49931722 C-535.76476153 1204.44141925 -536.12083735 1203.38352128 -536.48770335 1202.2935658 C-542.93942521 1183.12645433 -549.40837925 1163.96521595 -555.88915446 1144.80791097 C-557.8007736 1139.15692369 -559.71229305 1133.50590271 -561.62352946 1127.85478597 C-561.86193993 1127.14986705 -562.10035041 1126.44494813 -562.34598544 1125.71866803 C-568.95715796 1106.1696207 -575.54712991 1086.61342121 -582.13915446 1067.05791097 C-590.96115231 1040.88740277 -599.79133957 1014.71970236 -608.63915446 988.55791097 C-617.44467901 962.52091056 -626.23361158 936.47834646 -635.01415446 910.43291097 C-637.47633073 903.12950421 -639.93853826 895.82610799 -642.40087321 888.52275472 C-642.70443295 887.62238799 -643.00799269 886.72202127 -643.32075122 885.7943707 C-649.81721141 866.5261908 -656.32070656 847.26038911 -662.82665446 827.99541097 C-663.09222525 827.20901109 -663.35779605 826.42261121 -663.63141444 825.61238103 C-666.56808243 816.91643701 -669.50493866 808.22055657 -672.44188883 799.52470784 C-677.55028474 784.39951644 -682.65780317 769.27402872 -687.76520732 754.1485024 C-688.30600742 752.54692909 -688.84680942 750.94535641 -689.38761332 749.34378438 C-700.77896444 715.608676 -712.16554333 681.87195766 -723.55100443 648.13486104 C-727.49821643 636.43859082 -731.44557872 624.74237133 -735.39306071 613.04619222 C-735.67138177 612.22154155 -735.94970282 611.39689088 -736.23645785 610.5472508 C-737.64185694 606.38312972 -739.04725865 602.21900953 -740.45266154 598.05488973 C-742.98356975 590.55596478 -745.5144547 583.05703197 -748.04534152 575.5580998 C-749.45161156 571.39136987 -750.85788308 567.22464045 -752.26415446 563.05791097 C-752.82665447 561.39124431 -753.38915447 559.72457764 -753.95165446 558.05791097 C-754.23009196 557.23291097 -754.50852946 556.40791097 -754.79540446 555.55791097 C-784.32665227 468.05791746 -784.32665227 468.05791746 -785.17040541 465.55790811 C-785.73290221 463.89125097 -786.29539903 462.22459384 -786.85789588 460.55793672 C-788.26419518 456.39112437 -789.670494 452.22431185 -791.07679179 448.05749898 C-793.60745246 440.55923846 -796.13811659 433.06097911 -798.66879943 425.56272607 C-800.07428482 421.39836145 -801.47976729 417.23399585 -802.88524821 413.06962972 C-803.16356423 412.24499416 -803.44188025 411.42035859 -803.72863009 410.57073407 C-807.67786208 398.86935061 -811.62692888 387.16791142 -815.57589533 375.46643834 C-818.11777792 367.93441669 -820.65970245 360.40240919 -823.20165446 352.87041097 C-823.48094798 352.04284292 -823.7602415 351.21527486 -824.04799845 350.36262899 C-830.41956199 331.48328381 -836.79187296 312.60419135 -843.16649821 293.72587972 C-843.43425185 292.9329313 -843.70200549 292.13998288 -843.97787287 291.32300573 C-846.66755932 283.35759099 -849.35737506 275.39221993 -852.04740145 267.42691999 C-858.51642642 248.27169438 -864.98251628 229.1154829 -871.44307902 209.95740133 C-874.33603378 201.37924737 -877.23112192 192.80182444 -880.13134196 184.22612386 C-881.2395233 180.94873538 -882.34757316 177.67130247 -883.45556071 174.39384847 C-883.72414015 173.59951595 -883.9927196 172.80518342 -884.26943782 171.98678022 C-887.38323978 162.77520767 -890.47791284 153.55780472 -893.53452494 144.32709127 C-895.05186972 139.74749387 -896.5794434 135.17134453 -898.10836222 130.59560018 C-898.77474235 128.59140921 -899.43600954 126.58550777 -900.09108927 124.57759481 C-906.20604632 105.83640093 -913.67555526 86.89608491 -925.63915446 71.05791097 C-926.0194279 70.53535726 -926.39970133 70.01280355 -926.79149821 69.47441488 C-941.25680342 49.61928148 -959.20621589 33.95484724 -980.63915446 22.05791097 C-981.26128825 21.70986409 -981.88342204 21.36181722 -982.52440837 21.00322347 C-1000.79223861 10.9296441 -1021.08524803 5.15557417 -1041.63915446 2.05791097 C-1041.63915446 1.72791097 -1041.63915446 1.39791097 -1041.63915446 1.05791097 C-953.6641189 0.9685822 -865.68908326 0.87933452 -758.6963444 0.77190023 C-757.27765053 0.77047625 -755.85895667 0.76905227 -754.4402628 0.7676283 C-724.63299333 0.73771064 -694.82572383 0.70782196 -665.0184543 0.67796656 C-650.03559083 0.66295947 -635.05272736 0.64794684 -620.0698639 0.63292896 C-617.81036873 0.63066421 -615.55087356 0.62839963 -613.29137839 0.62613505 C-578.67752653 0.59144193 -544.06367479 0.55663317 -509.4498234 0.52147298 C-508.71092361 0.52072242 -507.97202382 0.51997186 -507.21073313 0.51919856 C-495.30467824 0.50710389 -483.39862337 0.49499911 -471.49256849 0.48289298 C-437.01529875 0.4478365 -402.53802893 0.41286014 -368.06075862 0.37836843 C-367.34516054 0.37765249 -366.62956246 0.37693656 -365.89227959 0.37619893 C-350.14760205 0.3604482 -334.40292448 0.34473553 -318.65824687 0.32905845 C-312.31409637 0.32274087 -305.96994588 0.31641786 -299.62579539 0.31009298 C-298.93164415 0.30940106 -298.2374929 0.30870915 -297.52230677 0.30799627 C-278.20749742 0.28874144 -258.89268837 0.26920837 -239.57787962 0.24936092 C-228.20015991 0.23766974 -216.82244013 0.22604406 -205.44472036 0.21442015 C-201.50549389 0.21039147 -197.56626743 0.20634954 -193.62704098 0.20230638 C-166.14026531 0.17413887 -138.65348992 0.14756982 -111.16670802 0.12624746 C-108.80430373 0.12440104 -106.44189945 0.12255353 -104.07949517 0.12070491 C-85.42556904 0.10614153 -85.42556904 0.10614153 -76.51292222 0.099442 C-51.00857871 0.08013132 -25.50430083 0.05090217 0 0 Z " fill="#32AFE9" transform="translate(2406.63915445935,260.9420890305191)"/>
<path d="M0 0 C1.72632342 -0.00222382 3.45264554 -0.00576478 5.17896393 -0.01048949 C9.90229799 -0.01963764 14.62543629 -0.01022081 19.34875567 0.00234491 C24.49493448 0.01269551 29.64109451 0.00552601 34.78727728 0.00061244 C43.7995144 -0.00559584 52.81169197 -0.00069959 61.82392216 0.01152706 C75.22469875 0.02965694 88.62543793 0.03053217 102.02622455 0.0279011 C124.57014353 0.02396216 147.11403334 0.03395126 169.65794277 0.05195332 C191.97703203 0.06973319 214.29611042 0.08128108 236.61520672 0.08451176 C237.30888305 0.08461499 238.00255937 0.08471823 238.71725619 0.08482459 C245.05311395 0.08576422 251.38897171 0.08662729 257.72482948 0.08739852 C273.47360235 0.08931647 289.22237495 0.09219429 304.97114754 0.09572411 C306.0467796 0.09596403 306.0467796 0.09596403 307.1441416 0.09620881 C342.00871681 0.10406944 376.87328485 0.12299051 411.73785496 0.14282513 C423.83349699 0.14970024 435.92913905 0.15652639 448.02478123 0.16314983 C448.77497536 0.16356068 449.5251695 0.16397153 450.29809679 0.16439483 C485.18636961 0.18343443 520.07464366 0.19460621 554.9629203 0.20375422 C557.22847503 0.20434841 559.49402975 0.20494599 561.75958447 0.20554426 C576.77379687 0.20950367 591.7880093 0.21332761 606.80222176 0.21706083 C636.67563025 0.22448994 666.5490385 0.23271497 696.42244663 0.24148698 C697.84502918 0.2419047 699.26761173 0.24232186 700.69019429 0.24273846 C786.57685087 0.26789668 872.46349955 0.30975941 984.50567722 0.36914349 C985.14784838 1.965527 985.78912436 3.56227064 986.43002319 5.15916538 C986.78722991 6.0483132 987.14443663 6.93746101 987.5124678 7.8535527 C988.67318605 10.79340816 989.72569585 13.75716254 990.73443699 16.75244427 C991.12858295 17.91819988 991.52272892 19.0839555 991.9288187 20.28503704 C992.55660976 22.15584942 992.55660976 22.15584942 993.19708347 24.06445599 C993.65454446 25.42086247 994.11225984 26.77718318 994.57020664 28.13342571 C995.55455359 31.05041578 996.53713333 33.96799278 997.5183115 36.88605022 C999.10135652 41.5940709 1000.68829128 46.30077514 1002.27569675 51.00732708 C1004.53534015 57.70815521 1006.79325117 64.40956481 1009.05011082 71.11133099 C1012.42277593 81.12585509 1015.80127696 91.13840424 1019.18145847 101.15039349 C1019.73735184 102.79698962 1020.29324478 104.44358589 1020.84913731 106.0901823 C1021.68538478 108.56719286 1022.52163814 111.04420142 1023.35791206 113.52120304 C1026.19311138 121.91910253 1029.02698295 130.31744993 1031.86083508 138.7158041 C1038.47091969 158.30516755 1045.08453687 177.89333707 1051.69925785 197.48113537 C1060.52103994 223.6046239 1069.34032399 249.72895401 1078.15694141 275.85418606 C1087.29180016 302.92242165 1096.4284305 329.99005793 1105.56817722 357.05664349 C1105.83544621 357.84813793 1106.10271519 358.63963238 1106.37808323 359.4551115 C1108.8041336 366.63963296 1111.23022015 373.82414219 1113.65634251 381.00863934 C1117.43829956 392.20818464 1121.22009543 403.40778437 1125.00177097 414.60742474 C1125.40410198 415.79894901 1125.40410198 415.79894901 1125.81456089 417.01454449 C1127.98265578 423.43547375 1130.15074103 429.85640627 1132.31882572 436.27733898 C1134.21574041 441.89518161 1136.11265945 447.51302276 1138.00958347 453.13086224 C1138.27782429 453.92527218 1138.5460651 454.71968212 1138.82243443 455.53816509 C1142.60235773 466.73259974 1146.38245114 477.92697694 1150.16265202 489.12131786 C1152.31969142 495.50899744 1154.47668956 501.89669094 1156.63367558 508.28438854 C1157.17317868 509.88207087 1157.71268368 511.47975255 1158.25219059 513.07743359 C1164.60271613 531.88372969 1170.95207027 550.69042027 1177.29864597 569.49804974 C1177.86795638 571.18514795 1178.43726689 572.87224614 1179.00657749 574.55934429 C1179.86075182 577.09061611 1180.71492567 579.62188809 1181.56909943 582.1531601 C1182.42295615 584.68348875 1183.27681597 587.21381636 1184.13067722 589.74414349 C1184.41247208 590.57921555 1184.69426693 591.41428761 1184.98460102 592.27466488 C1193.15115073 616.47524172 1201.32465137 640.67345665 1209.50567722 664.86914349 C1217.95071321 689.84576899 1226.38771832 714.82509388 1234.81817722 739.80664349 C1235.38403365 741.48338113 1235.94989058 743.16011859 1236.51574802 744.83685589 C1241.96567347 760.98610496 1247.41490267 777.13558888 1252.86317253 793.28539658 C1255.17781454 800.14644383 1257.49267236 807.00741824 1259.80768204 813.86834145 C1261.23279566 818.09193424 1262.65780073 822.3155636 1264.082551 826.53927898 C1269.84446028 843.62033376 1275.61219497 860.69932646 1281.41192722 877.76758099 C1297.19248552 924.21134249 1297.19248552 924.21134249 1303.29602146 942.7724638 C1303.83738536 944.41615148 1304.38145313 946.05895203 1304.92871189 947.70068645 C1314.47443539 976.38143776 1317.93965456 1009.70002637 1310.50567722 1039.36914349 C1310.30700047 1040.16739544 1310.10832371 1040.96564739 1309.90362644 1041.7880888 C1298.87650768 1084.52540152 1271.96655569 1122.1296066 1234.13067722 1145.11914349 C1215.1390504 1156.25487766 1196.01548896 1162.75989811 1174.50567722 1167.36914349 C1462.92567722 1167.69914349 1751.34567722 1168.02914349 2048.50567722 1168.36914349 C2048.50567722 1168.69914349 2048.50567722 1169.02914349 2048.50567722 1169.36914349 C1958.88525672 1169.40342595 1869.26483542 1169.43522673 1779.64441013 1169.45382977 C1778.30438856 1169.45410867 1776.96436698 1169.45438757 1775.6243454 1169.45466647 C1747.49479409 1169.46051228 1719.36524271 1169.46594567 1691.23569122 1169.47090284 C1677.10455697 1169.47339356 1662.97342273 1169.47596351 1648.8422885 1169.47860837 C1646.7107064 1169.47900687 1644.57912429 1169.4794031 1642.44754218 1169.47979925 C1609.63767544 1169.4859167 1576.82781019 1169.49372957 1544.01794529 1169.50647259 C1543.31290517 1169.50674639 1542.60786504 1169.50702018 1541.88146007 1169.50730228 C1530.51466787 1169.51172683 1519.14787572 1169.51629412 1507.78108358 1169.52088037 C1475.02734162 1169.53409359 1442.27360081 1169.54624526 1409.51985645 1169.55142307 C1408.50877435 1169.55158368 1408.50877435 1169.55158368 1407.47726636 1169.55174753 C1393.3421224 1169.55397473 1379.20697843 1169.55574953 1365.07183436 1169.55697347 C1358.45150774 1169.55754977 1351.83118113 1169.55820104 1345.21085453 1169.55889797 C1343.90789209 1169.55903282 1342.60492964 1169.55916766 1341.26248349 1169.5593066 C1320.29683261 1169.56166911 1299.33119022 1169.57094276 1278.3655428 1169.58280755 C1257.28289067 1169.59459083 1236.20024695 1169.59907723 1215.11759165 1169.59614624 C1202.59536128 1169.59462626 1190.07316171 1169.59867013 1177.55093691 1169.61073857 C1169.17844419 1169.61825558 1160.80597158 1169.61845868 1152.43347746 1169.61280711 C1147.66787708 1169.6097969 1142.90233484 1169.60987885 1138.13674077 1169.61890985 C1092.65698795 1169.70002581 1092.65698795 1169.70002581 1073.00567722 1164.74414349 C1071.96016697 1164.48471966 1070.91465672 1164.22529583 1069.83746433 1163.95801067 C1043.26411327 1157.07977427 1019.09163815 1143.77636335 999.18927097 1124.90429974 C996.90300638 1122.74449519 994.5794451 1120.66647888 992.19317722 1118.61914349 C989.07478991 1115.91868437 986.17628976 1113.06103988 983.28692722 1110.11914349 C981.42178048 1108.28671861 979.48639977 1106.57561214 977.50567722 1104.86914349 C974.27611355 1102.08675017 971.27245069 1099.1589492 968.28692722 1096.11914349 C966.42178048 1094.28671861 964.48639977 1092.57561214 962.50567722 1090.86914349 C959.27611355 1088.08675017 956.27245069 1085.1589492 953.28692722 1082.11914349 C951.42178048 1080.28671861 949.48639977 1078.57561214 947.50567722 1076.86914349 C944.27611355 1074.08675017 941.27245069 1071.1589492 938.28692722 1068.11914349 C936.42178048 1066.28671861 934.48639977 1064.57561214 932.50567722 1062.86914349 C929.27611355 1060.08675017 926.27245069 1057.1589492 923.28692722 1054.11914349 C921.42178048 1052.28671861 919.48639977 1050.57561214 917.50567722 1048.86914349 C914.27611355 1046.08675017 911.27245069 1043.1589492 908.28692722 1040.11914349 C906.42178048 1038.28671861 904.48639977 1036.57561214 902.50567722 1034.86914349 C899.27611355 1032.08675017 896.27245069 1029.1589492 893.28692722 1026.11914349 C891.42178048 1024.28671861 889.48639977 1022.57561214 887.50567722 1020.86914349 C884.27611355 1018.08675017 881.27245069 1015.1589492 878.28692722 1012.11914349 C876.42178048 1010.28671861 874.48639977 1008.57561214 872.50567722 1006.86914349 C869.27611355 1004.08675017 866.27245069 1001.1589492 863.28692722 998.11914349 C861.42178048 996.28671861 859.48639977 994.57561214 857.50567722 992.86914349 C854.27611355 990.08675017 851.27245069 987.1589492 848.28692722 984.11914349 C846.42178048 982.28671861 844.48639977 980.57561214 842.50567722 978.86914349 C839.27611355 976.08675017 836.27245069 973.1589492 833.28692722 970.11914349 C831.42178048 968.28671861 829.48639977 966.57561214 827.50567722 964.86914349 C824.27611355 962.08675017 821.27245069 959.1589492 818.28692722 956.11914349 C816.42178048 954.28671861 814.48639977 952.57561214 812.50567722 950.86914349 C809.27611355 948.08675017 806.27245069 945.1589492 803.28692722 942.11914349 C801.42178048 940.28671861 799.48639977 938.57561214 797.50567722 936.86914349 C794.27611355 934.08675017 791.27245069 931.1589492 788.28692722 928.11914349 C786.42178048 926.28671861 784.48639977 924.57561214 782.50567722 922.86914349 C779.27611355 920.08675017 776.27245069 917.1589492 773.28692722 914.11914349 C771.42178048 912.28671861 769.48639977 910.57561214 767.50567722 908.86914349 C764.27611355 906.08675017 761.27245069 903.1589492 758.28692722 900.11914349 C756.42178048 898.28671861 754.48639977 896.57561214 752.50567722 894.86914349 C749.27611355 892.08675017 746.27245069 889.1589492 743.28692722 886.11914349 C741.42178048 884.28671861 739.48639977 882.57561214 737.50567722 880.86914349 C734.27611355 878.08675017 731.27245069 875.1589492 728.28692722 872.11914349 C726.42178048 870.28671861 724.48639977 868.57561214 722.50567722 866.86914349 C719.27611355 864.08675017 716.27245069 861.1589492 713.28692722 858.11914349 C711.42178048 856.28671861 709.48639977 854.57561214 707.50567722 852.86914349 C704.27611355 850.08675017 701.27245069 847.1589492 698.28692722 844.11914349 C696.42178048 842.28671861 694.48639977 840.57561214 692.50567722 838.86914349 C689.27611355 836.08675017 686.27245069 833.1589492 683.28692722 830.11914349 C681.42178048 828.28671861 679.48639977 826.57561214 677.50567722 824.86914349 C674.27611355 822.08675017 671.27245069 819.1589492 668.28692722 816.11914349 C666.42178048 814.28671861 664.48639977 812.57561214 662.50567722 810.86914349 C659.27611355 808.08675017 656.27245069 805.1589492 653.28692722 802.11914349 C651.42178048 800.28671861 649.48639977 798.57561214 647.50567722 796.86914349 C644.27611355 794.08675017 641.27245069 791.1589492 638.28692722 788.11914349 C636.42178048 786.28671861 634.48639977 784.57561214 632.50567722 782.86914349 C629.27611355 780.08675017 626.27245069 777.1589492 623.28692722 774.11914349 C621.42178048 772.28671861 619.48639977 770.57561214 617.50567722 768.86914349 C614.27611355 766.08675017 611.27245069 763.1589492 608.28692722 760.11914349 C606.42178048 758.28671861 604.48639977 756.57561214 602.50567722 754.86914349 C599.27611355 752.08675017 596.27245069 749.1589492 593.28692722 746.11914349 C591.42178048 744.28671861 589.48639977 742.57561214 587.50567722 740.86914349 C584.27611355 738.08675017 581.27245069 735.1589492 578.28692722 732.11914349 C576.42178048 730.28671861 574.48639977 728.57561214 572.50567722 726.86914349 C569.27611355 724.08675017 566.27245069 721.1589492 563.28692722 718.11914349 C561.42178048 716.28671861 559.48639977 714.57561214 557.50567722 712.86914349 C554.27611355 710.08675017 551.27245069 707.1589492 548.28692722 704.11914349 C546.42178048 702.28671861 544.48639977 700.57561214 542.50567722 698.86914349 C539.27611355 696.08675017 536.27245069 693.1589492 533.28692722 690.11914349 C531.42178048 688.28671861 529.48639977 686.57561214 527.50567722 684.86914349 C524.27611355 682.08675017 521.27245069 679.1589492 518.28692722 676.11914349 C516.42178048 674.28671861 514.48639977 672.57561214 512.50567722 670.86914349 C509.27611355 668.08675017 506.27245069 665.1589492 503.28692722 662.11914349 C501.42178048 660.28671861 499.48639977 658.57561214 497.50567722 656.86914349 C494.27611355 654.08675017 491.27245069 651.1589492 488.28692722 648.11914349 C486.42178048 646.28671861 484.48639977 644.57561214 482.50567722 642.86914349 C479.27611355 640.08675017 476.27245069 637.1589492 473.28692722 634.11914349 C471.42178048 632.28671861 469.48639977 630.57561214 467.50567722 628.86914349 C464.27611355 626.08675017 461.27245069 623.1589492 458.28692722 620.11914349 C456.42178048 618.28671861 454.48639977 616.57561214 452.50567722 614.86914349 C449.27611355 612.08675017 446.27245069 609.1589492 443.28692722 606.11914349 C441.42178048 604.28671861 439.48639977 602.57561214 437.50567722 600.86914349 C434.27611355 598.08675017 431.27245069 595.1589492 428.28692722 592.11914349 C426.42178048 590.28671861 424.48639977 588.57561214 422.50567722 586.86914349 C419.27611355 584.08675017 416.27245069 581.1589492 413.28692722 578.11914349 C411.42178048 576.28671861 409.48639977 574.57561214 407.50567722 572.86914349 C404.27611355 570.08675017 401.27245069 567.1589492 398.28692722 564.11914349 C396.42178048 562.28671861 394.48639977 560.57561214 392.50567722 558.86914349 C389.27611355 556.08675017 386.27245069 553.1589492 383.28692722 550.11914349 C381.42178048 548.28671861 379.48639977 546.57561214 377.50567722 544.86914349 C374.27611355 542.08675017 371.27245069 539.1589492 368.28692722 536.11914349 C366.42178048 534.28671861 364.48639977 532.57561214 362.50567722 530.86914349 C359.27611355 528.08675017 356.27245069 525.1589492 353.28692722 522.11914349 C351.42178048 520.28671861 349.48639977 518.57561214 347.50567722 516.86914349 C344.27611355 514.08675017 341.27245069 511.1589492 338.28692722 508.11914349 C336.42178048 506.28671861 334.48639977 504.57561214 332.50567722 502.86914349 C329.27611355 500.08675017 326.27245069 497.1589492 323.28692722 494.11914349 C321.42178048 492.28671861 319.48639977 490.57561214 317.50567722 488.86914349 C314.27611355 486.08675017 311.27245069 483.1589492 308.28692722 480.11914349 C305.79320208 477.66916791 303.14327919 475.41760498 300.49395847 473.13867474 C297.89138968 470.82243964 295.46504275 468.35784357 293.04864597 465.84961224 C291.3686035 464.15078844 291.3686035 464.15078844 288.50567722 462.36914349 C287.12771353 460.72230883 285.74988246 459.07536294 284.37286472 457.42773724 C281.46185441 454.21831791 278.20150294 451.42768186 274.95489597 448.56445599 C272.85448811 446.68179375 270.85377619 444.75787836 268.88067722 442.74414349 C265.88532776 439.69254333 262.71260557 436.90895867 259.47442722 434.11914349 C256.96657396 431.88994059 254.63710914 429.51205598 252.28692722 427.11914349 C250.42178048 425.28671861 248.48639977 423.57561214 246.50567722 421.86914349 C243.27611355 419.08675017 240.27245069 416.1589492 237.28692722 413.11914349 C235.42178048 411.28671861 233.48639977 409.57561214 231.50567722 407.86914349 C228.27611355 405.08675017 225.27245069 402.1589492 222.28692722 399.11914349 C220.42178048 397.28671861 218.48639977 395.57561214 216.50567722 393.86914349 C213.27611355 391.08675017 210.27245069 388.1589492 207.28692722 385.11914349 C205.42178048 383.28671861 203.48639977 381.57561214 201.50567722 379.86914349 C198.27611355 377.08675017 195.27245069 374.1589492 192.28692722 371.11914349 C190.42178048 369.28671861 188.48639977 367.57561214 186.50567722 365.86914349 C183.27611355 363.08675017 180.27245069 360.1589492 177.28692722 357.11914349 C175.42178048 355.28671861 173.48639977 353.57561214 171.50567722 351.86914349 C168.27611355 349.08675017 165.27245069 346.1589492 162.28692722 343.11914349 C160.42178048 341.28671861 158.48639977 339.57561214 156.50567722 337.86914349 C153.27611355 335.08675017 150.27245069 332.1589492 147.28692722 329.11914349 C145.42178048 327.28671861 143.48639977 325.57561214 141.50567722 323.86914349 C138.27611355 321.08675017 135.27245069 318.1589492 132.28692722 315.11914349 C130.42178048 313.28671861 128.48639977 311.57561214 126.50567722 309.86914349 C123.27611355 307.08675017 120.27245069 304.1589492 117.28692722 301.11914349 C115.42178048 299.28671861 113.48639977 297.57561214 111.50567722 295.86914349 C108.27611355 293.08675017 105.27245069 290.1589492 102.28692722 287.11914349 C100.42178048 285.28671861 98.48639977 283.57561214 96.50567722 281.86914349 C93.27611355 279.08675017 90.27245069 276.1589492 87.28692722 273.11914349 C85.42178048 271.28671861 83.48639977 269.57561214 81.50567722 267.86914349 C78.27611355 265.08675017 75.27245069 262.1589492 72.28692722 259.11914349 C70.42178048 257.28671861 68.48639977 255.57561214 66.50567722 253.86914349 C63.27611355 251.08675017 60.27245069 248.1589492 57.28692722 245.11914349 C55.42178048 243.28671861 53.48639977 241.57561214 51.50567722 239.86914349 C48.27611355 237.08675017 45.27245069 234.1589492 42.28692722 231.11914349 C40.42178048 229.28671861 38.48639977 227.57561214 36.50567722 225.86914349 C33.27611355 223.08675017 30.27245069 220.1589492 27.28692722 217.11914349 C25.42178048 215.28671861 23.48639977 213.57561214 21.50567722 211.86914349 C18.27611355 209.08675017 15.27245069 206.1589492 12.28692722 203.11914349 C10.42178048 201.28671861 8.48639977 199.57561214 6.50567722 197.86914349 C3.27611355 195.08675017 0.27245069 192.1589492 -2.71307278 189.11914349 C-4.57821952 187.28671861 -6.51360023 185.57561214 -8.49432278 183.86914349 C-11.72388645 181.08675017 -14.72754931 178.1589492 -17.71307278 175.11914349 C-19.57821952 173.28671861 -21.51360023 171.57561214 -23.49432278 169.86914349 C-26.72388645 167.08675017 -29.72754931 164.1589492 -32.71307278 161.11914349 C-34.57821952 159.28671861 -36.51360023 157.57561214 -38.49432278 155.86914349 C-41.10079886 153.62356409 -43.58366798 151.32362837 -45.99432278 148.86914349 C-48.28447415 146.53791317 -50.62887878 144.35945784 -53.11932278 142.24414349 C-70.15934007 127.42962552 -84.41697369 109.71278525 -86.49432278 86.36914349 C-87.74475905 65.50920229 -84.27504195 46.06503663 -70.48651028 29.58008099 C-69.8290884 28.85047161 -69.17166653 28.12086224 -68.49432278 27.36914349 C-67.6925259 26.47453411 -66.89072903 25.57992474 -66.06463528 24.65820599 C-47.97380351 5.51863035 -25.39107604 -0.13173675 0 0 Z " fill="#0074CD" transform="translate(1205.4943227767944,2409.630856513977)"/>
<path d="M0 0 C0 0.33 0 0.66 0 1 C288.42 1.33 576.84 1.66 874 2 C874 2.33 874 2.66 874 3 C578.32 3 282.64 3 -22 3 C-22 2.67 -22 2.34 -22 2 C-19.27123692 1.66304138 -16.54206837 1.33031571 -13.8125 1 C-13.04357422 0.90460937 -12.27464844 0.80921875 -11.48242188 0.7109375 C-7.63071189 0.24807106 -3.88829149 -0.12467468 0 0 Z " fill="#197DC6" transform="translate(2380,3576)"/>
<path d="M0 0 C0 0.33 0 0.66 0 1 C58.08 1.33 116.16 1.66 176 2 C176 2.33 176 2.66 176 3 C110.66 3 45.32 3 -22 3 C-22 2.67 -22 2.34 -22 2 C-19.27123692 1.66304138 -16.54206837 1.33031571 -13.8125 1 C-13.04357422 0.90460937 -12.27464844 0.80921875 -11.48242188 0.7109375 C-7.63071189 0.24807106 -3.88829149 -0.12467468 0 0 Z " fill="#1A88D6" transform="translate(2380,3576)"/>
</svg>
